# AST/ASF file generated using VICON BodyLanguage
# -----------------------------------------------
:version 1.10
:name VICON
:units
  mass 1.0
  length 0.45
  angle deg
:documentation
   .ast/.asf automatically generated from VICON data using
   VICON BodyBuilder and BodyLanguage model FoxedUp or BRILLIANT.MOD
:root
   order TX TY TZ RX RY RZ
   axis XYZ
   position 0 0 0  
   orientation 0 0 0 
:bonedata
  begin
     id 1 
     name lhipjoint
     direction 0.690799 -0.707083 0.151096 
     length 2.54797 
     axis 0 0 0  XYZ
  end
  begin
     id 2 
     name lfemur
     direction 0.34202 -0.939693 0  
     length 7.21646  
     axis 0 0 20  XYZ
    dof rx ry rz
    limits (-160.0 20.0)
           (-70.0 70.0)
           (-60.0 70.0)
  end
  begin
     id 3 
     name ltibia
     direction 0.34202 -0.939693 0   
     length 8.16759   
     axis 0 0 20   XYZ
    dof rx
    limits (-10.0 170.0)
  end
  begin
     id 4 
     name lfoot
     direction 0.0487203 -0.133858 0.989802   
     length 1.93375   
     axis -90 7.62852e-016 20   XYZ
    dof rx rz
    limits (-45.0 90.0)
           (-70.0 20.0)
  end
  begin
     id 5 
     name ltoes
     direction 1.53453e-011 -4.21783e-011 1   
     length 0.979747   
     axis -90 7.62852e-016 20   XYZ
    dof rx
    limits (-90.0 20.0)
  end
  begin
     id 6 
     name rhipjoint
     direction -0.694693 -0.703425 0.150315   
     length 2.56122  
     axis 0 0 0  XYZ 
  end
  begin
     id 7 
     name rfemur
     direction -0.34202 -0.939693 0   
     length 7.36786   
     axis 0 0 -20   XYZ
    dof rx ry rz
    limits (-160.0 20.0)
           (-70.0 70.0)
           (-70.0 60.0)
  end
  begin
     id 8 
     name rtibia
     direction -0.34202 -0.939693 0   
     length 8.07288   
     axis 0 0 -20   XYZ
    dof rx
    limits (-10.0 170.0)
 end
 begin
     id 9 
     name rfoot
     direction -0.0428397 -0.117701 0.992125   
     length 1.88295  
     axis -90 -7.62852e-016 -20   XYZ
    dof rx rz
    limits (-45.0 90.0)
           (-20.0 70.0)
  end
  begin
     id 10 
     name rtoes
     direction -1.53456e-011 -4.2187e-011 1   
     length 0.955578   
     axis -90 -7.62852e-016 -20   XYZ
    dof rx
    limits (-90.0 20.0)
  end
  begin
     id 11 
     name lowerback
     direction 0.0288145 0.999398 -0.0193241   
     length 1.92149   
     axis 0 0 0   XYZ
    dof rx ry rz
    limits (-20.0 45.0)
           (-30.0 30.0)
           (-30.0 30.0)
  end
  begin
     id 12 
     name upperback
     direction 0.0233784 0.998099 0.0570278   
     length 1.90435   
     axis 0 0 0   XYZ
    dof rx ry rz
    limits (-20.0 45.0)
           (-30.0 30.0)
           (-30.0 30.0)
  end
  begin
     id 13 
     name thorax
     direction 0.0096694 0.997833 0.0650817   
     length 1.9111   
     axis 0 0 0   XYZ
    dof rx ry rz
    limits (-20.0 45.0)
           (-30.0 30.0)
           (-30.0 30.0)
  end
  begin
     id 14 
     name lowerneck
     direction 0.00516803 0.999916 0.0118722   
     length 1.74664   
     axis 0 0 0   XYZ
    dof rx ry rz
    limits (-20.0 45.0)
           (-30.0 30.0)
           (-30.0 30.0)
  end
  begin
     id 15 
     name upperneck
     direction -0.0510851 0.996117 -0.071696   
     length 1.68498   
     axis 0 0 0   XYZ
    dof rx ry rz
    limits (-20.0 45.0)
           (-30.0 30.0)
           (-30.0 30.0)
  end
  begin
     id 16
     name head
     direction -0.019188 0.999436 -0.0275702  
     length 1.83483  
     axis 0 0 0   XYZ
    dof rx ry rz
    limits (-20.0 45.0)
           (-30.0 30.0)
           (-30.0 30.0)
  end
  begin
     id 17 
     name lclavicle
     direction 0.967006 0.248456 -0.0562957  
     length 3.39395  
     axis 0 0 0   XYZ
    dof ry rz
    limits (-20.0 10.0)
           (0.0 20.0)
  end
  begin
     id 18 
     name lhumerus
     direction 1 -4.48962e-011 -5.62711e-019   
     length 5.24318   
     axis 180 -30 -90   XYZ
    dof rx ry rz
    limits (-60.0 90.0)
           (-90.0 90.0)
           (-90.0 90.0)
  end
  begin
     id 19
     name lradius
     direction 1 -4.48966e-011 7.90625e-027   
     length 2.98999   
     axis 180 -30 -90   XYZ
    dof rx
    limits (-10.0 170.0)
  end
  begin
     id 20
     name lwrist
     direction 1 -4.48959e-011 1.61068e-026   
     length 1.49499   
     axis -9.31229e-015 90 90   XYZ
    dof ry
    limits (-180.0 0.0)
 end
  begin
     id 21 
     name lhand
     direction 1 -4.49017e-011 3.22136e-026   
     length 0.726745   
     axis -2.0555e-014 90 90   XYZ
    dof rx rz
    limits (-90.0 90.0)
           (-45.0 45.0)
  end
  begin
     id 22 
     name lfingers
     direction 1 -4.4898e-011 6.44272e-026   
     length 0.58592   
     axis -4.11101e-014 90 90   XYZ
    dof rx
    limits (0.0 90.0)
  end
  begin
     id 23
     name lthumb
     direction 0.707107 -6.34922e-011 0.707107   
     length 0.841268   
     axis -90 45 2.85299e-015   XYZ
    dof rx rz
    limits (-45.0 45.0)
           (-45.0 45.0)
  end
  begin
     id 24 
     name rclavicle
     direction -0.972232 0.230238 0.0419005   
     length 3.40416  
     axis 0 0 0   XYZ 
    dof ry rz
    limits (-10.0 20.0)
           (-20.0 0.0)
  end
  begin
     id 25 
     name rhumerus
     direction -1 -4.48976e-011 2.48487e-027  
     length 5.37045   
     axis 180 30 90   XYZ
    dof rx ry rz
    limits (-90.0 60.0)
           (-90.0 90.0)
           (-90.0 90.0)
  end
  begin
     id 26 
     name rradius
     direction -1 -4.48942e-011 7.87951e-027   
     length 2.92792   
     axis 180 30 90   XYZ
    dof rx
    limits (-10.0 170.0)
  end
  begin
     id 27 
     name rwrist
     direction -1 -4.48969e-011 1.61068e-026   
     length 1.46396   
     axis -9.31229e-015 -90 -90   XYZ
    dof ry
    limits (-180.0 0.0)
  end
  begin
     id 28
     name rhand
     direction -1 -4.49043e-011 3.22136e-026   
     length 0.784497   
     axis -2.0555e-014 -90 -90   XYZ
    dof rx rz
    limits (-90.0 90.0)
           (-45.0 45.0)
  end
  begin
     id 29
     name rfingers
     direction -1 -4.48823e-011 6.44272e-026   
     length 0.632482   
     axis -4.11101e-014 -90 -90   XYZ
    dof rx
    limits (0.0 90.0)
  end
  begin
     id 30
     name rthumb
     direction -0.707107 -6.34923e-011 0.707107   
     length 0.908121   
     axis -90 -45 -2.85299e-015   XYZ
    dof rx rz
    limits (-45.0 45.0)
           (-45.0 45.0)
  end
:hierarchy
  begin
    root lhipjoint rhipjoint lowerback
    lhipjoint lfemur
    lfemur ltibia
    ltibia lfoot
    lfoot ltoes
    rhipjoint rfemur
    rfemur rtibia
    rtibia rfoot
    rfoot rtoes
    lowerback upperback
    upperback thorax
    thorax lowerneck lclavicle rclavicle
    lowerneck upperneck
    upperneck head
    lclavicle lhumerus
    lhumerus lradius
    lradius lwrist
    lwrist lhand lthumb
    lhand lfingers
    rclavicle rhumerus
    rhumerus rradius
    rradius rwrist
    rwrist rhand rthumb
    rhand rfingers
  end

#!OML:ASF E:\Style6\Style6.ASF
:FULLY-SPECIFIED
:DEGREES
1731
root 0.296442 18.2328 0.43645 9.93092 -2.72511 -3.4418
lowerback -5.64129 -0.255686 2.42923
upperback -4.87423 -0.410335 2.74664
thorax -1.85793 -0.229467 1.44911
lowerneck -5.49487 0.372702 4.26042
upperneck 13.8049 1.07756 -7.51358
head 5.09579 0.265901 -2.98298
rclavicle 1.79652e-014 -3.10104e-014
rhumerus 49.2499 31.0459 -20.9685
rradius 70.6531
rwrist -9.52605
rhand -13.3575 8.54949
rfingers 7.12502
rthumb 12.7485 -21.0413
lclavicle 1.79652e-014 -3.10104e-014
lhumerus 37.2759 -51.4756 31.386
lradius 61.8913
lwrist -13.6269
lhand -17.2567 21.5447
lfingers 7.12502
lthumb 8.98768 51.3332
rfemur -10.5633 13.9094 20.8979
rtibia 9.92259
rfoot -3.53019 -17.0902
rtoes -17.2715
lfemur -15.5054 -15.8706 -13.7772
ltibia 21.6257
lfoot -8.0683 20.0452
ltoes -13.2102
1732
root 0.297231 18.2341 0.438711 9.98715 -2.766 -3.45459
lowerback -5.61351 -0.185944 2.48375
upperback -4.8817 -0.318647 2.66617
thorax -1.88255 -0.186429 1.33936
lowerneck -5.55172 0.310342 4.42974
upperneck 13.7446 0.970327 -7.51885
head 5.08075 0.221374 -3.01878
rclavicle 4.99446e-015 -3.18055e-015
rhumerus 47.4342 30.2413 -21.1008
rradius 69.9189
rwrist -9.11864
rhand -13.409 8.51244
rfingers 7.12502
rthumb 12.6989 -21.0815
lclavicle 4.99446e-015 -3.18055e-015
lhumerus 35.3631 -50.2789 32.1963
lradius 60.9501
lwrist -13.9104
lhand -17.3857 20.8935
lfingers 7.12502
lthumb 8.86319 50.6874
rfemur -10.5824 13.9533 20.8903
rtibia 9.85129
rfoot -3.33984 -17.1335
rtoes -17.8326
lfemur -15.5261 -15.8598 -13.7577
ltibia 21.5748
lfoot -8.03703 20.0669
ltoes -13.4135
1733
root 0.29791 18.2361 0.444056 10.0446 -2.77877 -3.44427
lowerback -5.61133 -0.169532 2.5108
upperback -4.87979 -0.298062 2.63447
thorax -1.88219 -0.177357 1.29231
lowerneck -5.5983 0.300051 4.44947
upperneck 13.6688 0.94773 -7.51015
head 5.0641 0.211803 -3.01988
rclavicle 6.23687e-015 -1.86858e-014
rhumerus 45.8142 29.5208 -21.1004
rradius 69.1819
rwrist -8.69786
rhand -13.3952 8.00289
rfingers 7.12502
rthumb 12.7122 -21.5902
lclavicle 6.23687e-015 -1.86858e-014
lhumerus 33.4493 -49.0644 32.8919
lradius 60.2693
lwrist -14.1876
lhand -17.1668 21.1633
lfingers 7.12502
lthumb 9.07443 50.9481
rfemur -10.5791 13.9657 20.8649
rtibia 9.75368
rfoot -3.11781 -17.1708
rtoes -18.845
lfemur -15.5383 -15.8866 -13.763
ltibia 21.5298
lfoot -8.08466 20.1047
ltoes -13.2502
1734
root 0.298464 18.2378 0.449807 10.1224 -2.78328 -3.45874
lowerback -5.68237 -0.169158 2.49343
upperback -4.86762 -0.3001 2.67854
thorax -1.82979 -0.176861 1.34698
lowerneck -5.55975 0.303546 4.3856
upperneck 13.5635 0.960007 -7.5464
head 5.02579 0.214191 -3.01848
rclavicle -6.03808e-015 -4.21423e-014
rhumerus 44.2876 28.8503 -20.9811
rradius 68.3706
rwrist -8.27768
rhand -13.2187 7.56139
rfingers 7.12502
rthumb 12.8824 -22.021
lclavicle -6.03808e-015 -4.21423e-014
lhumerus 31.4579 -47.7025 33.75
lradius 59.5791
lwrist -14.3445
lhand -16.8881 20.7963
lfingers 7.12502
lthumb 9.3433 50.5693
rfemur -10.5828 13.9743 20.8587
rtibia 9.62546
rfoot -3.01409 -17.1872
rtoes -19.0225
lfemur -15.5791 -15.953 -13.7318
ltibia 21.4876
lfoot -8.17476 20.2039
ltoes -12.7856
1735
root 0.298437 18.2385 0.45525 10.1975 -2.81193 -3.44507
lowerback -5.77253 -0.157638 2.4486
upperback -4.82483 -0.28839 2.69704
thorax -1.73495 -0.168841 1.3909
lowerneck -5.69855 0.302233 4.26119
upperneck 13.5531 0.955654 -7.45981
head 5.04575 0.208745 -2.97091
rclavicle 2.48481e-015 -1.03368e-014
rhumerus 42.6991 28.0809 -20.9043
rradius 67.4953
rwrist -7.86664
rhand -13.1158 8.1477
rfingers 7.12502
rthumb 12.9816 -21.4284
lclavicle 2.48481e-015 -1.03368e-014
lhumerus 29.5643 -46.239 34.5239
lradius 58.8148
lwrist -14.2526
lhand -16.8992 20.9761
lfingers 7.12502
lthumb 9.33257 50.7495
rfemur -10.5877 14.0011 20.8183
rtibia 9.50317
rfoot -3.06235 -17.1804
rtoes -18.4817
lfemur -15.6051 -16.0196 -13.7301
ltibia 21.4281
lfoot -8.16461 20.3171
ltoes -12.8894
1736
root 0.299817 18.2379 0.460641 10.2922 -2.82308 -3.46332
lowerback -5.77768 -0.15726 2.47445
upperback -4.84051 -0.288478 2.7133
thorax -1.74852 -0.169462 1.3933
lowerneck -5.96465 0.30247 4.13955
upperneck 13.6601 0.949946 -7.32817
head 5.12353 0.201999 -2.91147
rclavicle 1.98785e-016 1.82882e-014
rhumerus 41.0672 27.3319 -20.8511
rradius 66.625
rwrist -7.48714
rhand -13.1375 8.69672
rfingers 7.12502
rthumb 12.9606 -20.8807
lclavicle 1.98785e-016 1.82882e-014
lhumerus 27.5862 -44.761 35.3909
lradius 57.9895
lwrist -13.8725
lhand -17.1429 21.7871
lfingers 7.12502
lthumb 9.09746 51.5709
rfemur -10.6202 14.0171 20.8105
rtibia 9.39208
rfoot -3.07647 -17.1894
rtoes -18.2383
lfemur -15.6535 -16.056 -13.6904
ltibia 21.3612
lfoot -8.00203 20.4003
ltoes -13.3959
1737
root 0.30094 18.2389 0.467316 10.3569 -2.79641 -3.37519
lowerback -5.73654 -0.164679 2.37577
upperback -4.87445 -0.291546 2.70016
thorax -1.80582 -0.168961 1.4353
lowerneck -5.9863 0.288338 4.23101
upperneck 13.5711 0.919916 -7.36227
head 5.09833 0.190342 -2.93833
rclavicle -5.2181e-016 2.5842e-014
rhumerus 39.373 26.6268 -20.8062
rradius 65.7755
rwrist -6.97618
rhand -13.175 8.34509
rfingers 7.12502
rthumb 12.9245 -21.2347
lclavicle -5.2181e-016 2.5842e-014
lhumerus 25.6619 -43.057 36.379
lradius 57.0387
lwrist -13.7355
lhand -16.8588 22.1606
lfingers 7.12502
lthumb 9.37159 51.9323
rfemur -10.6249 13.9751 20.7034
rtibia 9.31274
rfoot -3.15507 -17.1481
rtoes -17.6864
lfemur -15.6609 -16.1545 -13.7693
ltibia 21.2753
lfoot -7.92707 20.4666
ltoes -13.6006
1738
root 0.301128 18.2405 0.474597 10.4348 -2.74475 -3.34198
lowerback -5.7472 -0.163473 2.32948
upperback -4.87586 -0.288489 2.69597
thorax -1.80104 -0.166192 1.45699
lowerneck -5.89001 0.256681 4.32395
upperneck 13.3095 0.860934 -7.40096
head 4.99805 0.168284 -2.96616
rclavicle -1.61513e-015 3.10104e-014
rhumerus 37.6456 25.809 -20.8586
rradius 64.8639
rwrist -6.36427
rhand -13.0089 8.09162
rfingers 7.12502
rthumb 13.0846 -21.4779
lclavicle -1.61513e-015 3.10104e-014
lhumerus 23.8317 -41.003 37.4201
lradius 55.9859
lwrist -13.9218
lhand -16.0812 21.8946
lfingers 7.12502
lthumb 10.1219 51.6311
rfemur -10.6457 13.9208 20.666
rtibia 9.25792
rfoot -3.14949 -17.1454
rtoes -17.8578
lfemur -15.6842 -16.2663 -13.7722
ltibia 21.1807
lfoot -7.96453 20.5057
ltoes -13.3927
1739
root 0.299411 18.2411 0.481661 10.4929 -2.72449 -3.34985
lowerback -5.69631 -0.156027 2.29605
upperback -4.90098 -0.274045 2.71204
thorax -1.85524 -0.158095 1.49328
lowerneck -5.92484 0.239975 4.19192
upperneck 13.2491 0.832969 -7.28229
head 4.98337 0.155521 -2.90787
rclavicle -1.27222e-014 -3.97569e-016
rhumerus 35.877 24.9792 -21.0062
rradius 63.9178
rwrist -5.73219
rhand -12.6782 8.11933
rfingers 7.12502
rthumb 13.4034 -21.4295
lclavicle -1.27222e-014 -3.97569e-016
lhumerus 22.0408 -39.0206 38.3612
lradius 54.9288
lwrist -13.8075
lhand -15.9854 21.5543
lfingers 7.12502
lthumb 10.2143 51.2863
rfemur -10.6769 13.9073 20.6828
rtibia 9.25642
rfoot -3.16483 -17.1219
rtoes -17.9953
lfemur -15.6705 -16.3898 -13.7311
ltibia 21.0663
lfoot -7.92239 20.6093
ltoes -13.4384
1740
root 0.29757 18.2433 0.487646 10.5108 -2.72739 -3.35568
lowerback -5.52152 -0.13846 2.28515
upperback -4.98389 -0.240057 2.69854
thorax -2.03879 -0.142028 1.48811
lowerneck -5.89664 0.245268 4.18189
upperneck 13.3136 0.833575 -7.19469
head 4.99827 0.160667 -2.87931
rclavicle 6.06293e-015 1.63003e-014
rhumerus 33.9906 24.2228 -21.2159
rradius 63.0054
rwrist -5.08621
rhand -12.3768 8.21996
rfingers 7.12502
rthumb 13.6939 -21.3095
lclavicle 6.06293e-015 1.63003e-014
lhumerus 20.329 -37.2228 39.1272
lradius 53.8987
lwrist -13.2847
lhand -16.3625 21.4782
lfingers 7.12502
lthumb 9.85046 51.2278
rfemur -10.6554 13.916 20.7047
rtibia 9.2249
rfoot -3.06617 -17.1413
rtoes -18.6175
lfemur -15.6254 -16.4871 -13.7119
ltibia 20.9717
lfoot -7.86455 20.7519
ltoes -13.5178
1741
root 0.295807 18.245 0.495313 10.5579 -2.71622 -3.32124
lowerback -5.41507 -0.10027 2.25029
upperback -5.04008 -0.181934 2.65391
thorax -2.15675 -0.113281 1.46446
lowerneck -5.84324 0.218926 4.28516
upperneck 13.2979 0.785664 -7.18411
head 4.98157 0.14415 -2.89574
rclavicle 2.08724e-014 -3.61788e-014
rhumerus 31.9749 23.2405 -21.5987
rradius 62.0786
rwrist -4.34544
rhand -11.9391 8.39547
rfingers 7.12502
rthumb 14.1157 -21.1051
lclavicle 2.08724e-014 -3.61788e-014
lhumerus 18.8363 -35.1602 39.8562
lradius 52.8542
lwrist -13.1035
lhand -16.0587 21.498
lfingers 7.12502
lthumb 10.1435 51.2335
rfemur -10.6369 13.9037 20.6805
rtibia 9.15607
rfoot -3.01587 -17.1835
rtoes -18.8592
lfemur -15.6136 -16.5644 -13.7255
ltibia 20.8967
lfoot -7.99393 20.8002
ltoes -12.9289
1742
root 0.293589 18.2458 0.502302 10.5701 -2.69877 -3.31268
lowerback -5.35647 -0.0768886 2.2135
upperback -4.98238 -0.149285 2.62874
thorax -2.12956 -0.0959728 1.45994
lowerneck -5.99847 0.20612 4.37292
upperneck 13.2673 0.7575 -7.22021
head 4.99727 0.129989 -2.92355
rclavicle -3.35449e-015 -7.15625e-015
rhumerus 30.0927 22.032 -21.9747
rradius 61.0647
rwrist -3.57357
rhand -11.4048 8.75693
rfingers 7.12502
rthumb 14.6305 -20.707
lclavicle -3.35449e-015 -7.15625e-015
lhumerus 17.4717 -32.5284 40.6962
lradius 51.7272
lwrist -13.2839
lhand -15.4081 21.5504
lfingers 7.12502
lthumb 10.7711 51.2542
rfemur -10.5759 13.8896 20.6926
rtibia 9.08403
rfoot -3.10152 -17.2053
rtoes -18.3867
lfemur -15.5622 -16.6324 -13.7208
ltibia 20.8244
lfoot -7.97584 20.8074
ltoes -12.7591
